<svg xmlns="http://www.w3.org/2000/svg" viewBox="0 0 112.6 109.29">
  <defs>
    <style>
      .a {
        fill: #48bd9c;
      }

      .a, .b, .c, .d, .e, .f, .g {
        isolation: isolate;
      }

      .b {
        fill: #fad362;
      }

      .c {
        fill: #3ea49a;
      }

      .d {
        fill: #f15f50;
      }

      .e {
        fill: #f0834a;
      }

      .f {
        fill: #edae53;
      }

      .g {
        fill: #fff;
      }
    </style>
  </defs>
  <g>
    <path class="a" d="M46.88,81.63a36.4,36.4,0,0,1,.21-3.93A36.45,36.45,0,0,1,27.32,49a36.43,36.43,0,1,0,36.12,63.14A36.38,36.38,0,0,1,46.88,81.63Z" transform="translate(-7.14 -8.77)"/>
    <path class="b" d="M99.77,49.13a36.46,36.46,0,0,1-20,28.68,37.15,37.15,0,0,1,.2,3.82,36.41,36.41,0,0,1-16.56,30.53,36.43,36.43,0,1,0,36.33-63Z" transform="translate(-7.14 -8.77)"/>
    <path class="c" d="M80,81.63a37.15,37.15,0,0,0-.2-3.82,36.45,36.45,0,0,1-32.71-.11,36.46,36.46,0,0,0,16.35,34.46A36.41,36.41,0,0,0,80,81.63Z" transform="translate(-7.14 -8.77)"/>
    <path class="d" d="M63.44,51.1a36.42,36.42,0,0,1,36.33-2A36.43,36.43,0,1,0,27.12,45.2a37,37,0,0,0,.2,3.82A36.44,36.44,0,0,1,63.44,51.1Z" transform="translate(-7.14 -8.77)"/>
    <path class="e" d="M47.09,77.7A36.45,36.45,0,0,1,63.44,51.1,36.44,36.44,0,0,0,27.32,49,36.45,36.45,0,0,0,47.09,77.7Z" transform="translate(-7.14 -8.77)"/>
    <path class="f" d="M63.44,51.1A36.44,36.44,0,0,1,79.8,77.81a36.46,36.46,0,0,0,20-28.68,36.42,36.42,0,0,0-36.33,2Z" transform="translate(-7.14 -8.77)"/>
    <path class="g" d="M63.44,51.1A36.45,36.45,0,0,0,47.09,77.7a36.45,36.45,0,0,0,32.71.11A36.44,36.44,0,0,0,63.44,51.1Z" transform="translate(-7.14 -8.77)"/>
  </g>
</svg>
