<?xml version="1.0" encoding="utf-8"?>
<!-- Generator: Adobe Illustrator 25.0.1, SVG Export Plug-In . SVG Version: 6.00 Build 0)  -->
<svg version="1.1" id="Layer_1" xmlns="http://www.w3.org/2000/svg" xmlns:xlink="http://www.w3.org/1999/xlink" x="0px" y="0px"
	 viewBox="0 0 18 18" style="enable-background:new 0 0 18 18;" xml:space="preserve">
<style type="text/css">
	.st0{fill:#FFFFFF;stroke:#000000;stroke-miterlimit:10;}
	.st1{fill:none;}
</style>
<path class="st0" d="M2.5,3.5"/>
<path class="st1" d="M0,0h18v18H0V0z"/>
<path d="M3,13.5h12c0.4,0,0.8-0.3,0.8-0.8S15.4,12,15,12H3c-0.4,0-0.8,0.3-0.8,0.8S2.6,13.5,3,13.5z M3,9.8h12
	c0.4,0,0.8-0.3,0.8-0.8S15.4,8.2,15,8.2H3C2.6,8.2,2.2,8.6,2.2,9S2.6,9.8,3,9.8z M2.2,5.2C2.2,5.7,2.6,6,3,6h12
	c0.4,0,0.8-0.3,0.8-0.8S15.4,4.5,15,4.5H3C2.6,4.5,2.2,4.8,2.2,5.2z"/>
</svg>
