<svg xmlns="http://www.w3.org/2000/svg" viewBox="0 0 416.87 424.55">
  <defs>
    <style>
      .a, .b {
        fill: none;
        stroke: #fdfdfd;
        stroke-linecap: round;
        stroke-width: 14px;
      }

      .a {
        stroke-linejoin: round;
      }
    </style>
  </defs>
  <path class="a" d="M218.3,272.51c42.38-11.23,80.17,8.17,98.55,41.36,20.94,5.11,24.51.51,24.51.51C320.94,243.4,330.13,200,330.13,200c-18.39-14.81-23.26-21.12-46-17.87-10.72,1.53-45.13-34.8-43.4-54.64,1-11.75,13.61-6.13,15.23-7.66s3.15-18.38,9.79-18.89,62.81,4.59,75.57,18.89,25.53,63.32,33.7,72.51,79.15,75.06,65.88,188.43c-103.15,56.17-196.6,55.14-260.43,29.1C168.77,438.47,133,468.6,133,468.6S26.3,321.53,72.77,222c10.21,8.17,101.61-18.9,143.1,52.82A132.09,132.09,0,0,1,226,297" transform="translate(-54.05 -51.04)"/>
  <line class="b" x1="313.87" y1="49.86" x2="355.23" y2="7"/>
  <line class="b" x1="334.55" y1="88.7" x2="403.74" y2="61.13"/>
  <line class="b" x1="355.23" y1="129.04" x2="409.87" y2="122.91"/>
  <path class="b" d="M192.26,332.77c54.12,42.28,87.31,49,128.17,34.72" transform="translate(-54.05 -51.04)"/>
</svg>
